<svg width="14" height="14" fill="none" xmlns="http://www.w3.org/2000/svg"><path fill-rule="evenodd" clip-rule="evenodd" d="M7 .802c-1.738 0-1.956.007-2.638.038-.682.032-1.147.14-1.554.298-.42.163-.778.382-1.133.738a3.142 3.142 0 00-.74 1.133C.778 3.416.67 3.882.64 4.563c-.032.682-.04.9-.04 2.639C.6 8.94.608 9.157.639 9.84c.031.681.139 1.146.297 1.553.164.421.382.778.738 1.134a3.15 3.15 0 001.133.739c.408.158.873.266 1.554.297.683.031.9.039 2.639.039 1.738 0 1.956-.008 2.638-.039.681-.031 1.147-.139 1.554-.297a3.133 3.133 0 001.133-.739c.356-.355.575-.713.739-1.133.157-.408.265-.873.297-1.554.031-.682.039-.9.039-2.638s-.008-1.956-.039-2.64c-.032-.68-.14-1.146-.297-1.552a3.141 3.141 0 00-.739-1.134 3.128 3.128 0 00-1.133-.738C10.784.979 10.319.872 9.637.84 8.955.81 8.737.802 7 .802zm-.574 1.153h.575c1.708 0 1.91.006 2.586.037.624.028.962.133 1.188.22.299.116.512.255.736.479.224.224.362.437.478.736.088.225.192.564.22 1.188.032.675.038.877.038 2.585s-.006 1.911-.037 2.586c-.029.624-.133.962-.22 1.188a1.978 1.978 0 01-.48.735 1.98 1.98 0 01-.735.479c-.225.088-.564.192-1.188.22-.675.03-.878.037-2.586.037-1.71 0-1.912-.006-2.587-.037-.624-.029-.962-.133-1.188-.22a1.982 1.982 0 01-.736-.48 1.984 1.984 0 01-.479-.735c-.088-.225-.192-.564-.22-1.188-.031-.675-.037-.877-.037-2.586 0-1.71.006-1.91.037-2.586.028-.624.132-.962.22-1.188a1.98 1.98 0 01.479-.736 1.98 1.98 0 01.736-.479c.226-.088.564-.192 1.188-.22.59-.027.82-.035 2.012-.037v.002zm3.99 1.063a.768.768 0 100 1.536.768.768 0 000-1.536zm-3.415.897a3.287 3.287 0 100 6.574 3.287 3.287 0 000-6.574zm0 1.153a2.133 2.133 0 110 4.267 2.133 2.133 0 010-4.267z" fill="#F4F5F7"/></svg>