<svg width="93" height="35" fill="none" xmlns="http://www.w3.org/2000/svg"><path d="M7.701 22.245c-1.77 0-3.313-.268-4.63-.803-1.297-.535-2.274-1.265-2.933-2.191l2.563-2.377a6.89 6.89 0 002.16 1.605c.844.37 1.801.556 2.871.556.906 0 1.616-.134 2.13-.402.515-.288.772-.72.772-1.296 0-.453-.175-.762-.525-.926-.35-.186-.833-.33-1.45-.432l-2.563-.402a11.451 11.451 0 01-2.006-.463 5.501 5.501 0 01-1.606-.895 4.105 4.105 0 01-1.08-1.358c-.267-.535-.401-1.184-.401-1.945 0-1.667.638-2.974 1.914-3.92 1.276-.947 3.066-1.42 5.37-1.42 1.565 0 2.892.216 3.983.648 1.111.412 1.996 1.008 2.655 1.79l-2.285 2.593c-.473-.514-1.08-.946-1.821-1.296-.74-.35-1.636-.525-2.686-.525-1.77 0-2.654.535-2.654 1.605 0 .474.175.803.524.988.35.165.834.299 1.451.401l2.532.402a9.83 9.83 0 012.006.494 5.004 5.004 0 011.605.864c.473.37.844.823 1.112 1.358.267.535.4 1.183.4 1.945 0 1.667-.648 2.984-1.944 3.951-1.276.967-3.097 1.45-5.464 1.45zM19.574 5.946h4.568v2.902h.216c.391-.947.957-1.729 1.698-2.346s1.75-.926 3.025-.926c.885 0 1.688.164 2.408.494.74.329 1.369.833 1.883 1.512.535.68.947 1.544 1.235 2.593.309 1.05.463 2.295.463 3.735s-.154 2.686-.463 3.735c-.288 1.05-.7 1.914-1.235 2.593a4.767 4.767 0 01-1.883 1.513c-.72.33-1.523.494-2.408.494-1.276 0-2.284-.299-3.025-.895-.74-.618-1.307-1.41-1.698-2.377h-.216v14.38h-.227a4.34 4.34 0 01-4.341-4.34V5.946zm7.532 12.749c1.029 0 1.82-.309 2.377-.926.555-.638.833-1.513.833-2.624v-2.47c0-1.11-.278-1.975-.833-2.592-.556-.638-1.348-.957-2.377-.957-.803 0-1.503.195-2.1.586-.576.391-.864 1.009-.864 1.852v4.692c0 .844.288 1.462.865 1.852.596.392 1.296.587 2.099.587zm19.034 3.55c-1.235 0-2.346-.185-3.334-.556a7.143 7.143 0 01-2.531-1.667c-.68-.72-1.204-1.595-1.575-2.623-.37-1.03-.555-2.192-.555-3.489 0-1.296.185-2.459.555-3.488.37-1.029.895-1.903 1.575-2.624a6.809 6.809 0 012.53-1.636c.989-.39 2.1-.586 3.335-.586 1.234 0 2.346.195 3.334.586a6.54 6.54 0 012.5 1.636c.7.72 1.235 1.595 1.605 2.624.37 1.03.556 2.192.556 3.488 0 1.297-.186 2.46-.556 3.488-.37 1.03-.906 1.904-1.605 2.624-.68.72-1.513 1.276-2.5 1.667-.988.37-2.1.556-3.334.556zm0-3.396c1.029 0 1.831-.319 2.407-.957.577-.637.865-1.543.865-2.716v-2.531c0-1.173-.288-2.079-.865-2.717-.576-.638-1.378-.957-2.407-.957-1.03 0-1.832.32-2.408.957-.576.638-.864 1.544-.864 2.717v2.531c0 1.173.288 2.079.864 2.716.576.638 1.379.957 2.408.957zm12.15-.524h3.673V9.496H58.29v-3.55h8.242v4.507h.216c.144-.576.34-1.132.586-1.667a5.63 5.63 0 01.988-1.45 4.429 4.429 0 011.482-1.02c.576-.246 1.255-.37 2.037-.37h1.513v4.198h-3.396c-1.132 0-1.986.34-2.562 1.02-.576.658-.864 1.47-.864 2.438v4.723h5.248v3.55H58.29v-3.55zm27.337 3.55c-1.646 0-2.87-.433-3.673-1.297-.802-.864-1.204-1.965-1.204-3.303V9.496h-4.32v-3.55h2.809c.679 0 1.162-.134 1.45-.401.289-.268.433-.761.433-1.482V.328h4.198v5.618h6.204v3.55H85.32v8.829h6.204v3.55h-5.895z" fill="#FFCA36"/><path d="M31.186 26.871c-.321 0-.546-.064-.675-.193a.694.694 0 01-.183-.482v-.28c0-.193.061-.353.183-.482.129-.129.354-.193.675-.193.322 0 .544.064.666.193.129.129.193.29.193.482v.28a.675.675 0 01-.193.482c-.122.129-.344.193-.666.193zm-2.295 4.505h1.582v-2.759H28.89v-1.109h3.01v3.868h1.466v1.11H28.89v-1.11zm7.144 1.11v-4.978h1.428v.907h.057c.058-.142.13-.273.213-.396a1.41 1.41 0 01.714-.54c.16-.058.34-.087.54-.087.238 0 .456.042.656.126.199.077.37.196.511.357.141.16.25.357.328.588.084.232.125.498.125.8v3.223H39.18v-3.03c0-.642-.28-.964-.84-.964-.109 0-.218.016-.328.048a.753.753 0 00-.28.135.672.672 0 00-.202.222.704.704 0 00-.067.318v3.27h-1.428zm8.842 0l-1.785-4.978h1.505l.646 2.132.473 1.66h.077l.473-1.66.646-2.132h1.447l-1.784 4.978h-1.698zm8.408.115c-.836 0-1.47-.231-1.9-.694-.431-.463-.647-1.093-.647-1.89 0-.406.055-.77.164-1.091.116-.328.277-.604.483-.83.212-.231.466-.405.762-.52.302-.123.64-.184 1.013-.184.373 0 .707.061 1.003.184.296.115.546.282.752.501.206.219.364.486.473.8.116.31.174.657.174 1.043v.424h-3.406v.087c0 .321.1.582.3.781.199.193.491.29.877.29.296 0 .55-.055.762-.164a1.87 1.87 0 00.55-.454l.772.84c-.193.238-.463.443-.81.617-.348.173-.788.26-1.322.26zm-.116-4.186c-.308 0-.556.096-.743.29-.18.186-.27.44-.27.761v.077h2.007v-.077c0-.328-.09-.585-.27-.771-.174-.187-.415-.28-.724-.28zm7.347 4.186c-.553 0-1.035-.083-1.447-.25-.405-.168-.71-.396-.916-.685l.8-.743c.193.212.418.38.675.502.264.115.563.173.898.173.283 0 .505-.042.665-.125a.437.437 0 00.241-.405c0-.142-.054-.238-.163-.29a1.528 1.528 0 00-.454-.135l-.8-.125a3.579 3.579 0 01-.628-.145 1.72 1.72 0 01-.501-.28 1.283 1.283 0 01-.338-.424 1.347 1.347 0 01-.125-.608c0-.52.2-.93.598-1.225.398-.296.958-.444 1.678-.444.49 0 .904.068 1.245.203.347.129.623.315.83.56l-.715.81a1.815 1.815 0 00-.569-.405 1.953 1.953 0 00-.839-.165c-.553 0-.83.168-.83.502 0 .148.055.25.165.309.109.051.26.093.453.125l.79.126c.226.032.435.083.628.154.193.064.36.154.502.27.147.116.263.257.347.424.083.168.125.37.125.608 0 .521-.202.933-.608 1.235-.398.302-.967.453-1.707.453zm7.868-.115c-.515 0-.897-.136-1.148-.406-.25-.27-.376-.614-.376-1.032v-2.43h-1.35v-1.11h.877c.212 0 .363-.042.453-.125.09-.084.135-.238.135-.463v-1.168h1.312v1.756h1.94v1.11h-1.94v2.758h1.94v1.11h-1.843zm7.346-5.615c-.32 0-.546-.064-.675-.193a.694.694 0 01-.183-.482v-.28c0-.193.061-.353.183-.482.129-.129.354-.193.676-.193.321 0 .543.064.665.193.129.129.193.29.193.482v.28a.675.675 0 01-.193.482c-.122.129-.344.193-.665.193zm-2.295 4.505h1.582v-2.759h-1.582v-1.109h3.01v3.868h1.466v1.11h-4.476v-1.11zm7.145 1.11v-4.978h1.427v.907h.058a2.12 2.12 0 01.212-.396 1.408 1.408 0 01.714-.54c.16-.058.34-.087.54-.087.238 0 .456.042.656.126.2.077.37.196.511.357.142.16.25.357.328.588.084.232.126.498.126.8v3.223h-1.428v-3.03c0-.642-.28-.964-.84-.964-.109 0-.218.016-.327.048a.754.754 0 00-.28.135.67.67 0 00-.203.222.704.704 0 00-.067.318v3.27h-1.428zm12.42.501c0 .528-.222.917-.666 1.167-.443.251-1.141.377-2.093.377a6.57 6.57 0 01-1.177-.087 2.353 2.353 0 01-.743-.232.97.97 0 01-.385-.366 1.02 1.02 0 01-.107-.463c0-.283.084-.499.251-.647.168-.141.402-.25.704-.328v-.058a1.327 1.327 0 01-.51-.27c-.123-.122-.184-.292-.184-.51 0-.245.08-.425.241-.541.167-.116.386-.206.656-.27V30.7a1.663 1.663 0 01-.694-.598c-.161-.257-.242-.57-.242-.936 0-.29.052-.543.155-.762.103-.225.247-.411.434-.56.193-.147.421-.26.685-.337a3.16 3.16 0 01.887-.116c.315 0 .608.036.878.106v-.27c0-.193.067-.353.203-.482.135-.129.321-.193.559-.193h.878v1.042h-1.196v.087c.27.141.479.337.627.588.154.245.231.544.231.897 0 .29-.051.544-.154.762a1.56 1.56 0 01-.444.56 2.05 2.05 0 01-.694.337c-.264.078-.56.116-.888.116a4.5 4.5 0 01-.424-.02 3.403 3.403 0 01-.386-.076.677.677 0 00-.183.144.35.35 0 00-.068.222c0 .077.02.139.058.183a.39.39 0 00.154.107c.071.019.151.032.241.038.09.007.184.01.28.01h1.138c.354 0 .656.035.907.106.251.07.457.17.618.299.16.129.276.28.347.453.07.174.106.367.106.58zm-1.35.106a.367.367 0 00-.155-.308c-.103-.071-.299-.106-.588-.106h-1.708a.512.512 0 00-.193.405c0 .154.065.28.193.376.135.103.36.154.675.154h.84c.328 0 .566-.045.714-.135a.427.427 0 00.222-.386zm-1.438-3.058c.29 0 .498-.07.627-.212a.751.751 0 00.203-.54v-.232a.751.751 0 00-.203-.54c-.129-.141-.338-.212-.627-.212-.283 0-.489.07-.617.212a.772.772 0 00-.193.54v.232c0 .219.064.399.193.54.128.142.334.212.617.212z" fill="#fff"/></svg>