<svg width="156" height="56" fill="none" xmlns="http://www.w3.org/2000/svg"><path d="M13.544 36.363c-2.936 0-5.497-.444-7.682-1.332-2.151-.887-3.773-2.1-4.865-3.636l4.25-3.944a11.43 11.43 0 003.586 2.663c1.4.615 2.987.922 4.762.922 1.503 0 2.68-.222 3.534-.665.854-.478 1.28-1.195 1.28-2.151 0-.752-.29-1.264-.87-1.537-.58-.307-1.383-.546-2.407-.717l-4.25-.666a19.03 19.03 0 01-3.33-.768c-1.024-.375-1.912-.87-2.663-1.485a6.808 6.808 0 01-1.793-2.254c-.443-.887-.665-1.963-.665-3.226 0-2.766 1.058-4.934 3.175-6.505 2.117-1.57 5.087-2.355 8.911-2.355 2.595 0 4.798.358 6.607 1.075 1.844.683 3.312 1.673 4.405 2.97l-3.79 4.303c-.786-.854-1.793-1.57-3.022-2.151-1.23-.58-2.714-.871-4.456-.871-2.936 0-4.404.888-4.404 2.663 0 .785.29 1.332.87 1.639.58.273 1.383.495 2.408.666l4.2.666a16.38 16.38 0 013.328.82c1.024.34 1.912.819 2.663 1.433a6.546 6.546 0 011.844 2.254c.444.887.666 1.963.666 3.226 0 2.766-1.076 4.95-3.227 6.556-2.117 1.604-5.138 2.407-9.065 2.407zM33.242 9.321h7.58v4.814h.358c.65-1.57 1.588-2.868 2.817-3.892 1.23-1.024 2.903-1.536 5.02-1.536 1.468 0 2.8.273 3.994.819 1.23.546 2.27 1.383 3.124 2.51.888 1.126 1.571 2.56 2.049 4.302.512 1.741.768 3.807.768 6.197s-.256 4.455-.768 6.197c-.478 1.741-1.16 3.175-2.049 4.302-.853 1.127-1.895 1.963-3.124 2.51-1.195.546-2.526.819-3.995.819-2.116 0-3.79-.495-5.019-1.485-1.229-1.025-2.168-2.34-2.816-3.944h-.359v23.86a7.58 7.58 0 01-7.58-7.58V9.321zM45.74 30.473c1.707 0 3.021-.512 3.943-1.536.922-1.059 1.383-2.51 1.383-4.354v-4.097c0-1.844-.46-3.278-1.383-4.302-.922-1.058-2.236-1.588-3.943-1.588-1.332 0-2.493.325-3.483.973-.956.65-1.434 1.673-1.434 3.073v7.785c0 1.4.478 2.424 1.434 3.073.99.649 2.151.973 3.483.973zm31.578 5.89c-2.048 0-3.892-.307-5.53-.922-1.64-.649-3.04-1.57-4.2-2.766-1.127-1.195-1.998-2.646-2.612-4.353-.615-1.707-.922-3.636-.922-5.787s.307-4.08.922-5.788c.614-1.707 1.485-3.158 2.612-4.353 1.16-1.195 2.56-2.1 4.2-2.714 1.638-.649 3.482-.973 5.53-.973 2.05 0 3.893.324 5.532.973 1.639.614 3.021 1.52 4.148 2.714 1.161 1.195 2.049 2.646 2.663 4.353.615 1.707.922 3.637.922 5.788 0 2.15-.307 4.08-.922 5.787-.614 1.707-1.502 3.158-2.663 4.353-1.127 1.195-2.51 2.117-4.148 2.766-1.64.614-3.483.922-5.532.922zm0-5.634c1.708 0 3.04-.53 3.995-1.587.956-1.059 1.434-2.561 1.434-4.508v-4.2c0-1.945-.478-3.448-1.434-4.506-.956-1.059-2.287-1.588-3.995-1.588-1.707 0-3.038.53-3.994 1.588-.956 1.058-1.434 2.56-1.434 4.507v4.2c0 1.946.478 3.448 1.434 4.506.956 1.059 2.287 1.588 3.994 1.588zm20.159-.871h6.095V15.211h-6.095V9.32h13.675v7.48h.358a15.7 15.7 0 01.973-2.766 9.351 9.351 0 011.639-2.407 7.34 7.34 0 012.459-1.69c.956-.41 2.082-.615 3.38-.615h2.509v6.965h-5.633c-1.878 0-3.295.564-4.251 1.69-.956 1.093-1.434 2.442-1.434 4.047v7.835h8.706v5.89h-22.38v-5.89zm45.357 5.89c-2.732 0-4.763-.717-6.095-2.15-1.331-1.435-1.997-3.261-1.997-5.48V15.21h-7.17V9.32h4.66c1.127 0 1.929-.222 2.407-.666.478-.444.717-1.263.717-2.458V0h6.966v9.321h10.294v5.89h-10.294v14.647h10.294v5.89h-9.782z" fill="#6153E1"/><path d="M52.51 43.292c-.534 0-.908-.107-1.121-.32a1.153 1.153 0 01-.304-.8v-.464c0-.32.101-.587.304-.8.213-.214.587-.32 1.12-.32.534 0 .902.106 1.105.32.213.213.32.48.32.8v.464c0 .31-.107.576-.32.8-.203.213-.571.32-1.105.32zm-3.81 7.474h2.625V46.19H48.7v-1.84h4.994v6.417h2.432v1.841H48.7v-1.84zm11.853 1.841v-8.258h2.37v1.504h.095a3.51 3.51 0 01.352-.656 2.335 2.335 0 011.185-.897c.266-.095.565-.143.896-.143.395 0 .758.069 1.088.208.331.128.614.325.849.592.234.266.416.592.544.976.138.384.208.827.208 1.328v5.346h-2.37v-5.026c0-1.067-.464-1.6-1.392-1.6-.182 0-.363.027-.545.08a1.25 1.25 0 00-.464.224 1.13 1.13 0 00-.336.368c-.075.15-.112.326-.112.528v5.426h-2.368zm14.671 0l-2.961-8.258h2.496l1.073 3.537.784 2.752h.128l.784-2.752 1.073-3.538H81l-2.96 8.259h-2.817zm13.95.192c-1.388 0-2.439-.384-3.154-1.152-.714-.768-1.072-1.814-1.072-3.137 0-.672.09-1.275.272-1.809a3.968 3.968 0 01.8-1.376 3.345 3.345 0 011.265-.864 4.446 4.446 0 011.68-.304c.62 0 1.174.1 1.665.304.49.192.907.469 1.248.832.342.363.603.805.784 1.328.193.512.289 1.088.289 1.729v.704H87.3v.144c0 .533.165.966.496 1.296.33.32.816.48 1.457.48.49 0 .912-.09 1.264-.272a3.1 3.1 0 00.912-.752l1.28 1.393c-.32.394-.768.736-1.344 1.024-.576.288-1.307.432-2.192.432zm-.193-6.946c-.512 0-.922.16-1.232.48-.299.31-.448.731-.448 1.264v.128h3.329v-.128c0-.544-.15-.97-.448-1.28-.288-.31-.688-.464-1.2-.464zm12.19 6.946c-.918 0-1.718-.139-2.4-.416-.673-.278-1.18-.656-1.521-1.136l1.328-1.233c.32.352.694.63 1.12.832a3.67 3.67 0 001.489.289c.469 0 .837-.07 1.104-.209a.723.723 0 00.4-.672c0-.234-.09-.395-.272-.48-.181-.096-.432-.17-.752-.224l-1.328-.208a5.938 5.938 0 01-1.04-.24 2.848 2.848 0 01-.833-.464 2.128 2.128 0 01-.56-.704c-.139-.278-.208-.614-.208-1.009 0-.864.33-1.541.992-2.032.662-.491 1.59-.736 2.785-.736.811 0 1.499.112 2.064.336.577.213 1.035.522 1.377.928l-1.184 1.344a3.022 3.022 0 00-.945-.672c-.384-.181-.848-.272-1.392-.272-.918 0-1.377.277-1.377.832 0 .246.091.416.273.512.181.086.432.155.752.208l1.312.209c.374.053.72.138 1.04.256.321.106.598.256.833.448.245.192.437.426.576.704.139.277.208.613.208 1.008 0 .864-.336 1.547-1.008 2.049-.662.501-1.606.752-2.833.752zm13.053-.192c-.853 0-1.488-.224-1.904-.672-.416-.448-.624-1.02-.624-1.713V46.19h-2.241v-1.84h1.456c.353 0 .603-.07.753-.208.149-.14.224-.395.224-.769v-1.936h2.176v2.913h3.217v1.84h-3.217v4.577h3.217v1.841h-3.057zm12.19-9.315c-.534 0-.907-.107-1.121-.32a1.156 1.156 0 01-.304-.8v-.464c0-.32.102-.587.304-.8.214-.214.587-.32 1.121-.32.533 0 .901.106 1.104.32.213.213.32.48.32.8v.464c0 .31-.107.576-.32.8-.203.213-.571.32-1.104.32zm-3.809 7.474h2.624V46.19h-2.624v-1.84h4.993v6.417h2.433v1.841h-7.426v-1.84zm11.853 1.841v-8.258h2.369v1.504h.096c.096-.235.213-.453.352-.656a2.32 2.32 0 011.184-.897 2.66 2.66 0 01.896-.143c.395 0 .758.069 1.089.208.33.128.613.325.848.592.235.266.416.592.544.976.139.384.208.827.208 1.328v5.346h-2.369v-5.026c0-1.067-.464-1.6-1.392-1.6a1.92 1.92 0 00-.544.08 1.243 1.243 0 00-.464.224 1.105 1.105 0 00-.336.368c-.075.15-.112.326-.112.528v5.426h-2.369zm20.608.833c0 .874-.368 1.52-1.105 1.936-.736.416-1.893.624-3.473.624-.789 0-1.44-.048-1.952-.144-.512-.085-.923-.214-1.233-.384-.298-.17-.512-.374-.64-.608a1.698 1.698 0 01-.176-.769c0-.47.139-.826.416-1.072.278-.235.667-.416 1.169-.544v-.096c-.352-.107-.635-.256-.849-.448-.202-.203-.304-.486-.304-.849 0-.405.134-.704.4-.896.278-.192.641-.341 1.089-.448v-.096a2.763 2.763 0 01-1.153-.992c-.266-.427-.4-.945-.4-1.553 0-.48.086-.901.256-1.264a2.48 2.48 0 01.721-.928 3.41 3.41 0 011.136-.56 5.234 5.234 0 011.472-.192 5.71 5.71 0 011.457.176v-.449c0-.32.112-.587.336-.8.224-.213.533-.32.928-.32h1.457v1.729h-1.985v.144c.448.234.795.56 1.04.976.256.405.384.901.384 1.488 0 .48-.085.902-.256 1.265a2.58 2.58 0 01-.736.928c-.32.245-.704.432-1.152.56a5.241 5.241 0 01-1.473.192c-.245 0-.48-.01-.704-.032a5.681 5.681 0 01-.64-.128 1.12 1.12 0 00-.304.24.58.58 0 00-.112.368c0 .128.032.23.096.304a.643.643 0 00.256.176c.117.033.251.054.4.065.149.01.304.015.464.015h1.889c.587 0 1.088.06 1.504.177.416.117.758.282 1.025.496.266.213.458.464.576.752.117.288.176.608.176.96zm-2.241.175a.608.608 0 00-.256-.512c-.171-.117-.496-.176-.976-.176h-2.833a.85.85 0 00-.32.672.75.75 0 00.32.625c.224.17.597.256 1.12.256h1.393c.544 0 .939-.075 1.184-.224a.71.71 0 00.368-.64zm-2.385-5.073c.481 0 .827-.118 1.041-.352.224-.235.336-.534.336-.897v-.384c0-.362-.112-.661-.336-.896-.214-.235-.56-.352-1.041-.352-.469 0-.81.117-1.024.352-.213.235-.32.534-.32.896v.384c0 .363.107.662.32.897.214.234.555.352 1.024.352z" fill="#0C0E12"/></svg>