<svg width="14" height="12" fill="none" xmlns="http://www.w3.org/2000/svg"><path fill-rule="evenodd" clip-rule="evenodd" d="M1.432 4.874C4.93 3.35 7.262 2.345 8.43 1.86 11.763.473 12.455.233 12.906.225c.1-.002.322.023.465.14a.506.506 0 01.171.324c.016.094.036.306.02.473-.18 1.897-.962 6.502-1.36 8.627-.168.9-.499 1.2-.82 1.23-.696.064-1.225-.46-1.9-.903-1.057-.692-1.653-1.123-2.678-1.799-1.185-.78-.417-1.21.258-1.91.177-.184 3.247-2.977 3.307-3.23.007-.032.014-.15-.056-.213-.07-.062-.174-.04-.249-.024-.106.024-1.793 1.14-5.061 3.346-.48.329-.913.489-1.302.48-.428-.009-1.252-.242-1.865-.44-.752-.245-1.349-.374-1.297-.79.027-.215.325-.436.893-.662z" fill="#fff"/></svg>