<svg width="12" height="11" fill="none" xmlns="http://www.w3.org/2000/svg"><path fill-rule="evenodd" clip-rule="evenodd" d="M5.64 2.956l.026.415-.42-.05c-1.528-.195-2.862-.856-3.995-1.967L.697.804l-.143.406c-.302.907-.11 1.865.52 2.509.336.356.26.407-.319.195-.201-.068-.377-.119-.394-.094-.059.06.143.83.302 1.136.218.424.663.839 1.15 1.085l.411.195-.486.008c-.47 0-.487.008-.437.186.168.551.831 1.136 1.57 1.39l.52.178-.453.271c-.672.39-1.46.61-2.25.627C.311 8.905 0 8.94 0 8.964c0 .085 1.024.56 1.62.746 1.788.55 3.911.313 5.506-.627 1.133-.67 2.267-2 2.795-3.288.286-.686.571-1.94.571-2.542 0-.39.025-.441.495-.907.277-.271.538-.568.588-.653.084-.16.075-.16-.353-.016-.713.254-.814.22-.461-.161.26-.272.57-.763.57-.907 0-.026-.125.017-.268.093a4.684 4.684 0 01-.739.288l-.453.144-.411-.28c-.227-.151-.546-.32-.714-.371C8.318.363 7.663.38 7.277.516c-1.049.38-1.712 1.364-1.636 2.44z" fill="#F4F5F7"/></svg>