<svg width="32" height="32" fill="none" xmlns="http://www.w3.org/2000/svg"><path d="M8.667 22.305v3.028m4.666-14.359c-1.065-.983-2.942-1.668-4.666-1.71l4.666 1.71zM4 20.308c1.003 1.233 2.867 1.937 4.667 1.997L4 20.308zM8.667 9.264c-2.052-.051-3.89.806-3.89 3.146 0 4.308 8.556 2.154 8.556 6.462 0 2.456-2.277 3.512-4.666 3.433V9.264zm0 0V6.667v2.597zM28 16l-5.12 5.333M17.333 16H28 17.333zM28 16l-5.12-5.334L28 16z" stroke="#7965F4" stroke-width="2" stroke-linecap="round" stroke-linejoin="round"/></svg>