<svg width="32" height="32" fill="none" xmlns="http://www.w3.org/2000/svg"><path d="M19.333 11.333c-1.04-.27-2.487-.667-3.647-.667-5.718 0-10.353 3.557-10.353 7.945 0 2.521 1.53 4.768 3.918 6.224l-.647 2.133A.8.8 0 009.37 28h2.352a.8.8 0 00.48-.16l1.86-1.396h3.249l1.86 1.396a.8.8 0 00.48.16h2.352a.8.8 0 00.765-1.032l-.647-2.133c1.423-.867 2.54-2.016 3.212-3.335" stroke="#F4B265" stroke-width="2" stroke-linecap="round" stroke-linejoin="round"/><path d="M19.333 11.334l6-2-.112 4.837L28 15.334V20l-2.568 1.334" stroke="#F4B265" stroke-width="2" stroke-linecap="round" stroke-linejoin="round"/><path d="M20.667 17.333a.667.667 0 110-1.333.667.667 0 010 1.333z" fill="#F4B265" stroke="#F4B265" stroke-width="2" stroke-linecap="round" stroke-linejoin="round"/><path d="M2.667 13.334s0 3.2 2.666 4" stroke="#F4B265" stroke-width="2" stroke-linecap="round" stroke-linejoin="round"/><path d="M17.068 10.337a4.824 4.824 0 00.265-1.584C17.333 6.128 15.244 4 12.667 4 10.089 4 8 6.128 8 8.753c0 1.255.478 2.397 1.259 3.247" stroke="#F4B265" stroke-width="2" stroke-linejoin="round"/></svg>