<svg width="32" height="32" fill="none" xmlns="http://www.w3.org/2000/svg"><path d="M16 29.333c7.364 0 13.333-5.97 13.333-13.333 0-7.364-5.97-13.333-13.333-13.333C8.636 2.667 2.667 8.637 2.667 16c0 7.364 5.97 13.333 13.333 13.333z" stroke="#918FF6" stroke-width="2" stroke-linecap="round" stroke-linejoin="round"/><path d="M16 21.855v2.812m4-13.334c-.913-.913-2.522-1.548-4-1.588l4 1.588zM12 20c.86 1.146 2.457 1.8 4 1.855L12 20zm4-10.255c-1.759-.047-3.333.748-3.333 2.922 0 4 7.333 2 7.333 6 0 2.281-1.952 3.261-4 3.188V9.745zm0 0V7.333v2.412z" stroke="#918FF6" stroke-width="2" stroke-linecap="round" stroke-linejoin="round"/></svg>