<svg width="32" height="32" fill="none" xmlns="http://www.w3.org/2000/svg"><path d="M16 10.667l5.073 3.685L16 10.667zm0 0l-5.072 3.685L16 10.667zm0 0v-4 4zm5.073 3.685l-1.938 5.963 1.938-5.963zm0 0l3.594-1.685-3.595 1.685zm-1.938 5.963h-6.27 6.27zm0 0l2.198 3.018-2.198-3.018zm-6.27 0l-1.937-5.963 1.937 5.963zm0 0l-2.198 3.018 2.198-3.018zm-1.937-5.963l-3.595-1.685 3.595 1.685zm-3.595-1.685l-4.6 4.666 4.6-4.666zm0 0L6 7.18l1.333 5.486zm17.334 0l4.6 4.666-4.6-4.666zm0 0L26 7.18l-1.333 5.486zm-8.667-6l-4.5-3.221 4.5 3.22zm0 0l4.501-3.221-4.5 3.22zm-5.333 16.666l-6.216-.666 6.216.666zm0 0L14 29.185l-3.333-5.852zm10.666 0l6.217-.666-6.217.666zm0 0L18 29.185l3.333-5.852zm8-7.333c0 7.364-5.97 13.333-13.333 13.333-7.364 0-13.333-5.97-13.333-13.333C2.667 8.636 8.637 2.667 16 2.667c7.364 0 13.333 5.97 13.333 13.333z" stroke="#65BBF4" stroke-width="2" stroke-linecap="round" stroke-linejoin="round"/></svg>